<svg width="24" height="24" viewBox="0 0 24 24" fill="none" xmlns="http://www.w3.org/2000/svg">
<path d="M11.9993 0C7.40697 0 3.6709 3.73661 3.6709 8.32907C3.6709 12.7497 11.2274 23.0779 11.5492 23.5152L11.8494 23.9239C11.8846 23.9719 11.9405 24 11.9993 24C12.059 24 12.1146 23.9719 12.1501 23.9239L12.4502 23.5152C12.7721 23.0779 20.3284 12.7497 20.3284 8.32907C20.3284 3.73661 16.5918 0 11.9993 0ZM11.9993 5.34561C13.6447 5.34561 14.9828 6.68368 14.9828 8.32907C14.9828 9.97361 13.6447 11.3125 11.9993 11.3125C10.3548 11.3125 9.01584 9.97361 9.01584 8.32907C9.01584 6.68368 10.3548 5.34561 11.9993 5.34561Z" fill="#663300"/>
</svg>
