<svg width="28" height="28" viewBox="0 0 28 28" fill="none" xmlns="http://www.w3.org/2000/svg">
<g clip-path="url(#clip0_201_7)">
<path d="M13.8191 0C17.6325 0 21.0893 1.5502 23.5929 4.04544C26.0964 6.54896 27.6383 9.99753 27.6383 13.8191C27.6383 17.6325 26.0881 21.0893 23.5929 23.5929C21.0893 26.0964 17.6408 27.6383 13.8191 27.6383C10.0058 27.6383 6.54896 26.0881 4.04544 23.5929C1.54191 21.0893 0 17.6408 0 13.8191C0 10.0058 1.5502 6.54896 4.04544 4.04544C6.54896 1.54191 9.99753 0 13.8191 0ZM15.3196 9.42554H17.8148V6.43291H15.3196C13.3964 6.43291 11.8296 7.99968 11.8296 9.92292V11.4234H9.83174V14.416H11.8296V22.3991H14.8222V14.416H17.3175L17.8148 11.4234H14.8222V9.92292C14.8222 9.64936 15.0543 9.42554 15.3196 9.42554ZM22.8882 4.75836C20.5671 2.43721 17.3672 1.00307 13.8274 1.00307C10.2877 1.00307 7.07951 2.43721 4.76665 4.75836C2.4455 7.07951 1.01136 10.2794 1.01136 13.8191C1.01136 17.3589 2.4455 20.5671 4.76665 22.8799C7.0878 25.2011 10.2877 26.6352 13.8274 26.6352C17.3672 26.6352 20.5754 25.2011 22.8882 22.8799C25.2094 20.5588 26.6435 17.3589 26.6435 13.8191C26.6435 10.2794 25.2094 7.07122 22.8882 4.75836Z" fill="#fff"/>
</g>
<circle cx="13.815" cy="13.815" r="12.815" stroke="#fff" stroke-width="2"/>
<defs>
<clipPath id="clip0_201_7">
<rect width="27.63" height="27.63" fill="#fff"/>
</clipPath>
</defs>
</svg>
