<svg width="28" height="28" viewBox="0 0 28 28" fill="none" xmlns="http://www.w3.org/2000/svg">
<g clip-path="url(#clip0_669_579)">
<path d="M25.5862 0H2.03999C0.912058 0 0 0.890471 0 1.99142V25.6348C0 26.7357 0.912058 27.6316 2.03999 27.6316H25.5862C26.7141 27.6316 27.6316 26.7357 27.6316 25.6402V1.99142C27.6316 0.890471 26.7141 0 25.5862 0ZM8.19773 23.5462H4.09617V10.3564H8.19773V23.5462ZM6.14695 8.55931C4.83013 8.55931 3.76696 7.49614 3.76696 6.18472C3.76696 4.8733 4.83013 3.81014 6.14695 3.81014C7.45837 3.81014 8.52154 4.8733 8.52154 6.18472C8.52154 7.49075 7.45837 8.55931 6.14695 8.55931ZM23.5462 23.5462H19.45V17.1348C19.45 15.6075 19.4231 13.6377 17.3183 13.6377C15.1866 13.6377 14.8628 15.3053 14.8628 17.0269V23.5462H10.772V10.3564H14.7009V12.159H14.7548C15.2999 11.1228 16.6383 10.0272 18.6297 10.0272C22.7799 10.0272 23.5462 12.758 23.5462 16.3091V23.5462Z" fill="#fff"/>
</g>
<defs>
<clipPath id="clip0_669_579">
<rect width="27.6316" height="27.6316" fill="white"/>
</clipPath>
</defs>
</svg>
