<svg width="28" height="24" viewBox="0 0 28 24" fill="none" xmlns="http://www.w3.org/2000/svg">
<path d="M8.69261 23.0418C19.1171 23.0418 24.8204 14.4032 24.8204 6.91404C24.8204 6.67119 24.815 6.42293 24.8042 6.18008C25.9137 5.37773 26.8711 4.3839 27.6316 3.2453C26.5983 3.70502 25.5012 4.00527 24.3779 4.13577C25.5607 3.42676 26.4463 2.31294 26.8706 1.00078C25.7579 1.66024 24.541 2.12543 23.2721 2.37642C22.4171 1.46797 21.2867 0.866474 20.0556 0.664918C18.8245 0.463363 17.5612 0.672977 16.4612 1.26135C15.3612 1.84973 14.4856 2.78409 13.9699 3.91999C13.4542 5.05588 13.327 6.33004 13.608 7.54547C11.3548 7.4324 9.15059 6.84708 7.13814 5.82747C5.12569 4.80786 3.34998 3.37671 1.92612 1.6268C1.20243 2.87451 0.980986 4.35096 1.30678 5.75608C1.63257 7.1612 2.48116 8.38955 3.68007 9.19149C2.78 9.16291 1.89964 8.92058 1.11174 8.48451V8.55467C1.11093 9.86405 1.5636 11.1333 2.39279 12.1467C3.22198 13.16 4.37652 13.855 5.66016 14.1134C4.82638 14.3415 3.9513 14.3747 3.10262 14.2105C3.46483 15.3366 4.16957 16.3215 5.11849 17.0277C6.0674 17.734 7.21313 18.1264 8.39579 18.1502C6.38799 19.7273 3.90777 20.5828 1.3546 20.5787C0.901811 20.578 0.449473 20.5503 0 20.4956C2.59375 22.1596 5.61097 23.0434 8.69261 23.0418Z" fill="#fff"/>
</svg>
